<?xml version="1.0" standalone="no"?>
<!DOCTYPE svg PUBLIC "-//W3C//DTD SVG 20010904//EN"
 "http://www.w3.org/TR/2001/REC-SVG-20010904/DTD/svg10.dtd">
<svg version="1.0" xmlns="http://www.w3.org/2000/svg"
 width="1754.000000pt" height="380.000000pt" viewBox="0 0 1754.000000 380.000000"
 preserveAspectRatio="xMidYMid meet">
<metadata>
Created by potrace 1.16, written by Peter Selinger 2001-2019
</metadata>
<g transform="translate(0.000000,380.000000) scale(0.100000,-0.100000)"
fill="#000000" stroke="none">
<path d="M1895 2938 c-51 -27 -62 -98 -22 -136 26 -25 82 -29 108 -9 82 63 4
195 -86 145z"/>
<path d="M3993 2940 c-29 -12 -56 -65 -47 -93 26 -87 137 -90 167 -4 10 28
-19 86 -48 97 -31 12 -42 12 -72 0z"/>
<path d="M6589 2921 c-32 -33 -36 -58 -14 -100 25 -49 90 -57 130 -16 41 40
33 105 -16 130 -42 22 -67 18 -100 -14z"/>
<path d="M8831 2924 c-61 -51 -26 -144 54 -144 79 0 112 84 56 141 -36 36 -70
37 -110 3z"/>
<path d="M12707 2929 c-41 -36 -45 -78 -12 -117 53 -63 145 -31 145 50 0 46
-26 77 -71 84 -28 5 -41 1 -62 -17z"/>
<path d="M15319 2921 c-56 -57 -23 -141 56 -141 80 0 115 93 54 144 -40 34
-74 33 -110 -3z"/>
<path d="M11355 2746 c-130 -58 -96 -249 44 -249 142 0 182 194 51 247 -48 19
-56 19 -95 2z"/>
<path d="M16021 2452 c-37 -20 -71 -73 -71 -110 0 -40 28 -91 62 -112 25 -16
44 -20 82 -17 124 11 161 164 57 234 -41 28 -85 29 -130 5z"/>
<path d="M8830 2401 c0 -45 2 -50 30 -61 45 -19 97 -82 105 -128 20 -123 -96
-234 -213 -203 -23 7 -54 23 -70 36 -28 24 -36 25 -156 25 l-126 0 0 -245 0
-245 1455 0 1455 0 0 245 0 245 -720 0 -720 0 0 35 0 35 94 0 95 0 0 125 1
125 -94 0 -95 0 -3 28 -3 27 -517 3 -518 2 0 -49z m386 -129 l18 -52 13 42 c7
24 11 51 9 61 -4 15 3 17 47 16 29 0 46 -3 40 -6 -7 -2 -13 -18 -13 -34 0 -27
2 -29 40 -29 38 0 40 2 40 29 0 16 -6 32 -12 34 -7 3 5 5 27 5 22 0 34 -2 28
-5 -9 -3 -13 -28 -13 -73 0 -45 4 -70 13 -73 6 -3 -6 -5 -28 -5 -22 0 -34 2
-27 5 6 2 12 20 12 39 0 33 -1 34 -40 34 -39 0 -40 -1 -40 -34 0 -19 6 -37 13
-39 6 -3 -5 -6 -26 -6 -35 -1 -37 0 -22 15 12 12 15 31 13 73 -4 80 -26 75
-53 -11 -11 -37 -23 -69 -26 -72 -9 -9 -58 125 -52 141 8 20 17 7 39 -55z
m-321 -301 c152 3 141 7 144 -54 3 -77 -30 -106 -170 -146 -111 -32 -139 -37
-139 -23 0 22 44 44 118 60 72 15 79 19 68 34 -11 15 -13 15 -24 -3 -18 -28
-62 -26 -62 3 0 22 0 22 -17 -2 -21 -31 -33 -40 -55 -40 -23 0 -24 47 -2 78
13 19 13 22 0 22 -22 0 -30 -19 -27 -67 4 -62 -25 -88 -108 -96 -67 -7 -81 -4
-81 19 0 17 36 19 43 2 3 -7 6 4 6 24 1 29 6 38 24 44 25 8 37 22 37 46 0 10
-5 15 -13 12 -22 -8 -40 21 -27 45 21 40 86 62 145 48 22 -5 85 -8 140 -6z"/>
<path d="M5922 2387 l-52 -53 0 -319 0 -319 57 -58 57 -58 538 0 538 0 0 430
0 430 -543 0 -543 0 -52 -53z m1118 -377 l0 -420 -272 1 c-162 0 -265 4 -253
9 16 7 14 9 -15 9 -26 1 -31 -2 -20 -9 10 -6 -70 -10 -235 -10 l-251 0 -57 58
-57 58 0 309 0 309 52 53 52 53 528 0 528 0 0 -420z"/>
<path d="M8750 2260 l0 -40 -40 0 -40 0 0 -40 0 -40 40 0 40 0 0 -45 0 -45 40
0 40 0 0 45 0 45 45 0 45 0 0 40 0 40 -45 0 -45 0 0 40 0 40 -40 0 -40 0 0
-40z"/>
<path d="M2941 2133 c-48 -25 -74 -64 -74 -110 0 -79 52 -133 128 -133 128 0
178 156 75 232 -38 28 -89 32 -129 11z"/>
<path d="M3531 2132 c-120 -64 -75 -242 60 -242 42 0 55 5 85 33 31 28 37 41
41 83 5 60 -18 103 -70 127 -45 22 -74 21 -116 -1z"/>
<path d="M5323 2130 c-41 -24 -63 -67 -63 -121 0 -35 6 -48 39 -80 35 -35 44
-39 90 -39 44 0 56 5 87 33 31 28 37 41 41 83 5 59 -10 90 -56 121 -42 28 -95
30 -138 3z"/>
<path d="M14253 2104 c-119 -93 2 -285 139 -220 37 18 78 78 78 115 0 106
-134 171 -217 105z"/>
<path d="M16009 2107 c-67 -45 -75 -139 -18 -196 83 -83 219 -23 219 97 0 38
-5 50 -39 83 -33 34 -45 39 -83 39 -30 0 -56 -8 -79 -23z"/>
<path d="M13962 2020 c-34 -21 -62 -72 -62 -112 0 -37 34 -90 71 -110 52 -28
102 -24 143 13 55 48 64 108 27 178 -27 50 -120 67 -179 31z"/>
<path d="M15325 2031 c-11 -5 -33 -22 -48 -39 -77 -81 -16 -215 98 -215 54 0
92 23 118 74 41 78 -14 177 -104 185 -24 2 -53 0 -64 -5z"/>
<path d="M5619 1971 c-35 -35 -39 -44 -39 -91 0 -47 4 -56 39 -91 32 -33 45
-39 80 -39 54 0 97 22 121 63 55 90 -11 197 -121 197 -35 0 -48 -6 -80 -39z"/>
<path d="M11764 1711 c-41 -25 -68 -82 -59 -128 3 -19 21 -50 38 -70 106 -115
286 32 200 164 -35 53 -121 69 -179 34z"/>
<path d="M14498 1583 c248 -2 656 -2 905 0 248 1 45 2 -453 2 -498 0 -701 -1
-452 -2z"/>
<path d="M6074 1516 c-90 -40 -108 -157 -33 -221 36 -29 103 -34 149 -10 86
44 76 193 -15 231 -42 17 -61 17 -101 0z"/>
<path d="M11887 1365 c-27 -17 -53 -25 -99 -28 l-63 -3 62 -2 62 -2 -11 -30
c-16 -47 -2 -94 37 -129 63 -55 129 -54 184 3 36 37 51 99 32 134 -11 20 -8
21 41 25 l53 3 -52 2 c-37 1 -63 9 -89 27 -49 33 -109 34 -157 0z"/>
<path d="M10995 1293 c4 -16 9 -166 12 -335 l4 -308 -106 0 -105 0 0 -140 0
-140 218 2 217 3 3 138 3 137 -111 0 -110 0 0 313 c0 216 3 316 11 324 15 15
3 33 -23 33 -17 0 -19 -4 -13 -27z m235 -783 l0 -130 -210 0 -210 0 0 130 0
130 210 0 210 0 0 -130z"/>
<path d="M11414 1151 c-83 -38 -98 -146 -30 -208 31 -29 43 -33 89 -33 47 0
57 4 84 33 107 110 -4 272 -143 208z"/>
<path d="M1910 1083 c-36 -13 -60 -47 -60 -83 0 -66 61 -105 118 -76 66 34 63
124 -4 152 -19 8 -35 14 -36 13 -2 0 -10 -3 -18 -6z"/>
<path d="M3994 1076 c-67 -30 -64 -127 6 -156 24 -10 36 -10 61 1 69 28 70
127 3 155 -39 16 -31 16 -70 0z"/>
<path d="M6084 1076 c-98 -43 -31 -196 67 -155 69 28 70 127 3 155 -39 16 -32
16 -70 0z"/>
<path d="M9073 1075 c-57 -24 -70 -84 -29 -131 50 -59 146 -22 146 56 0 62
-59 100 -117 75z"/>
<path d="M13390 1083 c-93 -34 -72 -167 27 -167 62 0 102 69 72 126 -8 16 -68
51 -81 47 -2 0 -10 -3 -18 -6z"/>
<path d="M15353 1083 c-13 -2 -32 -16 -43 -30 -44 -56 -6 -137 65 -137 72 0
111 85 63 138 -25 27 -51 35 -85 29z"/>
</g>
</svg>
